<svg xmlns="http://www.w3.org/2000/svg" width="32" height="32" viewBox="0 0 32 32" fill="none">
  <circle cx="16" cy="16" r="15" stroke="#5C6BC0" stroke-width="2" fill="#8E99F3" opacity="0.2" />
  <path d="M16 7C13.0975 7 10.3832 8.15893 8.38873 10.1534C6.39429 12.1478 5.23535 14.8622 5.23535 17.7647C5.23535 18.4626 5.30942 19.1605 5.45756 19.8337C5.60571 20.5069 5.83137 21.1801 6.13112 21.8286" stroke="#5C6BC0" stroke-width="2" stroke-linecap="round" />
  <path d="M8.5293 24.2974C10.4559 26.2981 13.1471 27.5294 16.0001 27.5294C18.8531 27.5294 21.5443 26.2981 23.4708 24.2974" stroke="#5C6BC0" stroke-width="2" stroke-linecap="round" />
  <path d="M25.8686 21.8286C26.1684 21.1554 26.394 20.5069 26.5422 19.8337C26.6903 19.1605 26.7644 18.4626 26.7644 17.7647C26.7644 16.6176 26.5422 15.4706 26.1684 14.399C25.7945 13.3274 25.2232 12.3303 24.5011 11.4575" stroke="#5C6BC0" stroke-width="2" stroke-linecap="round" />
  <circle cx="12" cy="14" r="1.5" fill="#5C6BC0" />
  <circle cx="20" cy="14" r="1.5" fill="#5C6BC0" />
  <path d="M12 20C13.5 22 18.5 22 20 20" stroke="#5C6BC0" stroke-width="2" stroke-linecap="round" />
</svg>